PathFileType	4	(X/Y/Z)	C:\Users\Basilio\Documents\Thesis Gigler\squatting_fais\c3dfiles\075\SLS_back_pre2\markers_experimental.trc
DataRate	CameraRate	NumFrames	NumMarkers	Units	OrigDataRate	OrigDataStartFrame	OrigNumFrames
200.000000	200.000000	4	61	mm	200.000000	0	1329
Frame#	Time	FHD			LBHD			C7			T10			CLAV			LSHO			LUUPA			LMUPA			LDUPA			LLEP			LMEP			LRAD			LUL			LRFIN			RSHO			RUPA1			RMUPA			RDUPA			RLEP			RMEP			RRAD			RUL			RUFIN			LASI			RASI			USACR			LSACR			RSACR			LTHI1			LTHI2			LTHI3			LTHI4			LLFC			LMFC			LTIB1			LTIB2			LTIB3			LTIB4			LLMAL			LMMAL			LHEE			LMT1			LMT2			LMT5			RTHI			RTHI2			RTHI3			RTHI4			RLFC			RMFC			RTIB1			RTIB2			RTIB3			RTIB4			RLMAL			RMMAL			RHEE			RMT1			RMT2			RMT5			RBHD			
		X1	Y1	Z1	X2	Y2	Z2	X3	Y3	Z3	X4	Y4	Z4	X5	Y5	Z5	X6	Y6	Z6	X7	Y7	Z7	X8	Y8	Z8	X9	Y9	Z9	X10	Y10	Z10	X11	Y11	Z11	X12	Y12	Z12	X13	Y13	Z13	X14	Y14	Z14	X15	Y15	Z15	X16	Y16	Z16	X17	Y17	Z17	X18	Y18	Z18	X19	Y19	Z19	X20	Y20	Z20	X21	Y21	Z21	X22	Y22	Z22	X23	Y23	Z23	X24	Y24	Z24	X25	Y25	Z25	X26	Y26	Z26	X27	Y27	Z27	X28	Y28	Z28	X29	Y29	Z29	X30	Y30	Z30	X31	Y31	Z31	X32	Y32	Z32	X33	Y33	Z33	X34	Y34	Z34	X35	Y35	Z35	X36	Y36	Z36	X37	Y37	Z37	X38	Y38	Z38	X39	Y39	Z39	X40	Y40	Z40	X41	Y41	Z41	X42	Y42	Z42	X43	Y43	Z43	X44	Y44	Z44	X45	Y45	Z45	X46	Y46	Z46	X47	Y47	Z47	X48	Y48	Z48	X49	Y49	Z49	X50	Y50	Z50	X51	Y51	Z51	X52	Y52	Z52	X53	Y53	Z53	X54	Y54	Z54	X55	Y55	Z55	X56	Y56	Z56	X57	Y57	Z57	X58	Y58	Z58	X59	Y59	Z59	X60	Y60	Z60	X61	Y61	Z61	

1	0	-275.4092407226563	1721.661987304688	-852.9561157226565	-405.324920654297	1597.996215820313	-935.153991699219	-449.7199096679689	1481.535034179688	-872.4529418945315	-454.2910461425782	1156.1259765625	-868.373962402344	-304.2044372558594	1424.995239257813	-865.437683105469	-332.6440429687501	1450.326171875	-1029.173828125	-338.6419372558594	1253.2353515625	-1151.954833984375	-299.5528259277344	1229.906860351563	-1130.941772460938	-321.4205017089844	1187.067260742188	-1169.100830078125	-293.7440490722657	1105.52001953125	-1165.310791015625	-370.5772705078126	1088.451049804688	-1112.458374023438	-201.8136901855469	1078.061767578125	-927.7100830078127	-165.3664093017578	1026.655639648438	-968.7296142578127	-135.3202209472657	1069.470947265625	-874.1038208007815	-347.9525146484376	1447.566284179688	-703.2928466796876	-363.9150695800782	1248.164916992188	-587.0350952148439	-324.4106140136719	1222.1982421875	-601.9624633789064	-354.5841979980469	1179.684936523438	-569.9667358398439	-333.1301574707032	1111.0693359375	-566.1825561523439	-389.0647888183595	1073.046752929688	-620.2120361328126	-180.8295135498047	1085.288208007813	-792.802429199219	-156.0771026611328	1041.567138671875	-734.5136108398439	-108.7370681762696	1069.95458984375	-834.3222656250002	-283.9855041503907	990.3510742187502	-995.088562011719	-276.0194396972657	1000.027954101563	-742.4964599609376	-439.9913330078126	1055.009399414063	-868.8039550781252	-446.3598632812501	1023.368713378906	-895.1938476562502	-444.2234497070314	1025.021362304688	-838.3491210937502	-317.9123840332032	744.0595092773439	-1066.482299804688	-283.1279296875001	667.2091064453126	-1064.914306640625	-237.0701904296876	675.0639038085939	-1047.598999023438	-306.3507080078126	612.3840332031251	-1055.431884765625	-308.9192504882813	504.4890441894532	-1046.66455078125	-270.6907043457032	490.5736694335939	-922.6529541015627	-264.0631103515626	378.6535034179688	-1012.380187988281	-325.6340942382813	345.4651184082032	-1063.399169921875	-286.4881896972657	334.2126464843751	-1042.295654296875	-300.3051452636719	255.5257720947266	-1013.635620117188	-390.555633544922	127.4782943725586	-1032.929931640625	-362.4669799804688	135.8379669189453	-952.1792602539065	-449.3500061035157	100.7107925415039	-994.7960205078127	-247.9559783935547	52.04917526245119	-961.5606079101565	-242.2453918457032	55.69901657104494	-1010.041748046875	-280.7126159667969	44.59668350219727	-1063.888916015625	-331.4166870117188	793.549743652344	-677.2525024414064	-291.9018859863282	741.7674560546876	-682.6204833984376	-261.5126037597657	748.6581420898439	-694.4503173828126	-318.2720947265626	660.2487792968751	-693.1600341796876	-331.6860351562501	506.4729614257814	-725.4644775390626	-298.2924499511719	502.0736083984376	-850.3723754882815	-288.6921997070313	359.0016784667969	-794.286315917969	-341.4215087890626	282.7294311523438	-736.0108642578126	-306.5950927734376	276.5055847167969	-769.3109130859377	-319.7364196777344	233.3402099609376	-805.8316650390627	-392.0631713867189	116.8244781494141	-770.315856933594	-364.9064331054688	140.4168395996094	-850.3948364257815	-450.5419311523439	98.9439392089844	-825.552917480469	-245.8109436035157	58.0974578857422	-836.629089355469	-246.2076110839844	55.6920509338379	-794.2525024414065	-283.9032592773438	35.51829147338868	-742.0636596679689	nan	nan	nan	
2	0.005	-275.3640136718751	1721.594604492188	-852.925720214844	-405.3487243652345	1598.031005859375	-935.1082763671877	-449.7381896972657	1481.583374023438	-872.427185058594	-454.2979736328126	1156.090087890625	-868.3165283203127	-304.2278137207032	1424.992309570313	-865.4179687500002	-332.6173095703126	1450.350341796875	-1029.153442382813	-338.6579284667969	1253.266479492188	-1151.934936523438	-299.5061340332032	1229.944213867188	-1130.94091796875	-321.4226684570313	1187.12060546875	-1169.12841796875	-293.6498413085938	1105.5625	-1165.342163085938	-370.5302429199219	1088.485961914063	-1112.5224609375	-201.9432830810547	1077.978637695313	-927.7065429687502	-165.8479614257813	1026.703857421875	-968.890319824219	-128.4295349121094	1069.241943359375	-875.9017333984377	-347.9201354980469	1447.587768554688	-703.2587890625001	-363.8195190429688	1248.226806640625	-586.9223022460939	-324.3246765136719	1222.232055664063	-601.8670654296876	-354.4902343750001	1179.69970703125	-569.9125366210939	-333.0398864746094	1111.109252929688	-566.1038208007814	-388.9438476562501	1073.093139648438	-620.1254882812501	-180.8347778320313	1085.256225585938	-792.7907714843752	-156.1237487792969	1041.452392578125	-734.5361938476564	-106.3147964477539	1069.9794921875	-836.6690673828127	-284.0952758789063	990.2947998046877	-995.0222778320315	-275.7472229003907	1000.060302734375	-742.1322021484376	-439.973846435547	1055.045043945313	-868.757263183594	-446.3565979003907	1023.351135253906	-895.192077636719	-444.2113342285157	1025.0283203125	-838.319763183594	-317.9226684570313	744.0568237304689	-1066.450439453125	-282.1982116699219	666.9054565429689	-1064.486694335938	-237.1105346679688	675.0799560546876	-1047.600708007813	-306.3651733398438	612.4090576171876	-1055.398803710938	-308.9346008300782	504.4517211914064	-1046.675903320313	-270.6701660156251	490.5878295898439	-922.6398925781252	-263.9715576171876	378.6996459960938	-1012.414184570313	-325.6407165527344	345.4713745117188	-1063.4150390625	-286.4718627929688	334.2182922363282	-1042.271606445313	-300.3051452636719	255.5257720947266	-1013.635620117188	-390.5634155273439	127.477523803711	-1032.95458984375	-362.4965515136719	135.8570861816407	-952.1668701171877	-449.3537597656251	100.6947708129883	-994.792907714844	-247.927963256836	52.03090667724611	-961.5249633789065	-242.2060852050782	55.68544387817384	-1010.067260742188	-280.6965637207032	44.60290145874024	-1063.901123046875	-331.3870239257813	793.5344848632815	-677.2384033203126	-291.9326171875001	741.7047119140626	-682.5852050781251	-261.4829406738282	748.6608276367189	-694.4340820312501	-318.1969299316407	660.2537841796876	-693.1077270507814	-331.6504211425782	506.4690551757814	-725.4158935546876	-296.7272033691407	501.9454040527345	-851.097595214844	-288.6889038085938	358.9858093261719	-794.289001464844	-341.3923950195313	282.6299438476563	-736.0972290039064	-306.6636047363282	276.4913330078126	-769.299987792969	-319.7895507812501	233.2737121582032	-805.8332519531252	-392.0631713867189	116.8244934082032	-770.315856933594	-364.9508361816407	140.4736785888672	-850.4467773437502	-450.5264587402345	98.96421813964847	-825.5112915039065	-245.7356414794922	58.12070846557619	-836.5526123046877	-246.2181701660157	55.65227508544923	-794.2933349609377	-283.9453430175782	35.51041412353516	-742.0835571289064	nan	nan	nan	
3	0.01	-275.3201293945313	1721.595825195313	-852.8930664062502	-405.4037475585939	1597.992309570313	-935.090270996094	-449.7675170898439	1481.531005859375	-872.3789672851565	-454.2478942871095	1156.095458984375	-868.2691040039065	-304.1823120117188	1425.012084960938	-865.3977661132815	-332.6104431152344	1450.353881835938	-1029.155883789063	-338.5654296875001	1253.333862304688	-1151.944702148438	-299.4352111816407	1229.9609375	-1130.91357421875	-321.3797912597657	1187.171752929688	-1169.129516601563	-293.6338806152344	1105.602661132813	-1165.33740234375	-370.4849243164063	1088.486083984375	-1112.5478515625	-202.0047912597657	1077.945678710938	-927.6625976562502	-165.4766693115235	1026.6337890625	-968.6606445312502	-134.2477111816407	1068.935180664063	-874.020202636719	-347.8820495605469	1447.6015625	-703.2214355468751	-363.6924743652344	1248.284912109375	-586.8309936523439	-324.2361450195313	1222.2490234375	-601.8358764648439	-354.4007568359376	1179.744140625	-569.8352661132814	-332.9612121582032	1111.139038085938	-566.0268554687501	-388.9066162109376	1073.140625	-619.9956665039064	-180.7910614013672	1085.23388671875	-792.6900024414065	-156.0429382324219	1041.538696289063	-734.4604492187501	-106.1003952026367	1070.1201171875	-836.9184570312502	-284.1245422363282	990.3275146484377	-995.0293579101565	-275.9976196289063	999.9919433593752	-742.4092407226564	-439.9841308593751	1055.015380859375	-868.701110839844	-446.3790893554689	1023.354370117188	-895.129821777344	-444.2037963867189	1025.028198242188	-838.2642822265627	-317.8753356933594	744.0748291015626	-1066.406005859375	-283.1895446777344	667.2289428710939	-1064.857788085938	-237.1118774414063	675.0814819335939	-1047.597412109375	-306.3533020019532	612.3520507812501	-1055.34912109375	-308.9682312011719	504.4837646484376	-1046.656494140625	-270.6942443847657	490.6111755371095	-922.6002197265627	-263.9743652343751	378.7137451171876	-1012.364074707031	-325.6817321777344	345.4630737304688	-1063.37548828125	-286.4487304687501	334.2214660644532	-1042.317260742188	-300.2658996582032	255.5669250488282	-1013.634948730469	-390.5530700683595	127.4781875610352	-1032.927001953125	-362.4994506835938	135.8231353759766	-952.1452636718752	-449.4066467285157	100.661849975586	-994.8045043945315	-247.924789428711	52.08602142333986	-961.537536621094	-242.1994934082032	55.73697662353517	-1010.068664550781	-280.6560058593751	44.67566680908204	-1063.884399414063	-331.4146728515626	793.536804199219	-677.2161865234376	-291.9118957519532	741.7327880859376	-682.5494384765626	-261.4764404296876	748.6229248046876	-694.4362792968751	-318.2025146484376	660.2276000976564	-693.1079101562501	-331.5890808105469	506.458221435547	-725.3983764648439	-296.7272949218751	501.9586181640626	-851.0361938476565	-288.6712036132813	358.9747314453126	-794.2737426757815	-341.3840026855469	282.7185668945313	-735.9503784179689	-306.6569824218751	276.4568481445313	-769.3327636718752	-319.7400207519532	233.2861633300782	-805.7891845703127	-392.0883789062501	116.8268280029297	-770.3056640625002	-364.9032592773438	140.4645385742188	-850.4327392578127	-450.5172729492189	98.94427490234378	-825.5220947265627	-245.7699890136719	58.14527511596681	-836.5820312500002	-246.2071380615235	55.67261123657228	-794.2960205078127	-283.9175720214844	35.49652862548829	-742.0906982421876	nan	nan	nan	
4	0.015	-275.3182678222657	1721.620727539063	-852.889831542969	-405.4335937500001	1597.99609375	-935.0755004882815	-449.7470703125001	1481.562377929688	-872.309753417969	-454.257781982422	1156.119995117188	-868.1832275390627	-304.1077270507813	1425.04296875	-865.3426513671877	-332.5738220214844	1450.391845703125	-1029.110229492188	-338.5024108886719	1253.369995117188	-1151.916748046875	-299.3886718750001	1230.018188476563	-1130.913330078125	-321.2909545898438	1187.260620117188	-1169.128173828125	-293.5614929199219	1105.660400390625	-1165.387451171875	-370.5255737304688	1088.556640625	-1112.608764648438	-201.9795684814454	1077.983032226563	-927.6551513671877	-165.497314453125	1026.59814453125	-968.5999145507815	-134.2731170654297	1068.886962890625	-873.999450683594	-347.8292541503907	1447.64453125	-703.1567382812501	-363.6122436523438	1248.308471679688	-586.7427368164064	-324.1747436523438	1222.25341796875	-601.7697753906251	-354.2926635742188	1179.761962890625	-569.7499389648439	-332.8962402343751	1111.189453125	-565.9216308593751	-388.8504028320314	1073.099853515625	-619.9348754882814	-180.8446197509766	1085.200561523438	-792.6799926757815	-156.0386810302735	1041.552856445313	-734.4350585937501	-106.1388473510742	1070.1025390625	-836.9005126953127	-284.1103515625001	990.2947998046877	-994.9288330078127	-276.0048828125001	999.9699707031252	-742.4260864257814	-440.0339660644532	1055.04296875	-868.6580200195315	-446.3950195312501	1023.343200683594	-895.0349121093752	-444.199188232422	1025.013916015625	-838.2330322265627	-317.9319763183594	744.0948486328126	-1066.388549804688	-282.2589721679688	666.8824462890626	-1064.3935546875	-237.1024322509766	675.0858764648439	-1047.562377929688	-306.3635864257813	612.4067993164064	-1055.361572265625	-308.9985351562501	504.507293701172	-1046.635375976563	-270.7494201660157	490.5503234863282	-922.5706787109377	-264.0279235839844	378.6958312988282	-1012.375671386719	-325.6670532226563	345.4440002441407	-1063.36083984375	-286.4748840332032	334.2616271972657	-1042.29541015625	-300.2641906738282	255.5356750488282	-1013.611267089844	-390.563934326172	127.4979095458985	-1032.952514648438	-362.4662780761719	135.863021850586	-952.1253662109377	-449.3645629882814	100.692008972168	-994.8000488281252	-247.9562683105469	52.09321212768556	-961.5561523437502	-242.1675415039063	55.73335647583009	-1010.052612304688	-280.6964416503907	44.63645172119141	-1063.89599609375	-331.4169311523438	793.5098266601565	-677.1734008789064	-291.9379577636719	741.7118530273439	-682.5246582031251	-261.4144897460938	748.6638183593751	-694.3516845703126	-318.1131896972657	660.2192382812501	-693.0587158203126	-331.5668945312501	506.4509887695314	-725.3832397460939	-296.7372741699219	501.9278869628907	-851.045104980469	-288.6753540039063	358.9912109375001	-794.265563964844	-341.3585815429688	282.7268981933594	-735.9429931640626	-306.6305541992188	276.4633483886719	-769.2988281250002	-319.7130126953126	233.3231964111329	-805.8125610351565	-392.0844116210939	116.8311538696289	-770.2838134765627	-364.9296264648438	140.4640808105469	-850.4165649414065	-450.5701599121095	98.97296142578128	-825.5164184570315	-245.8032836914063	58.10849761962892	-836.6052246093752	-246.2131958007813	55.67816543579103	-794.2933349609377	-283.9122009277344	35.51946640014649	-742.0650024414064	nan	nan	nan	
